<svg width="240" height="81" viewBox="0 0 240 81" fill="none" xmlns="http://www.w3.org/2000/svg">
<g filter="url(#filter0_d)">
<path d="M91.3315 28.8261H83.8919V49H77.9163V28.8261H70.6129V24.2125H91.3315V28.8261ZM93.8682 49V24.2125H102.772C105.961 24.2125 108.384 24.797 110.041 25.966C111.71 27.135 112.544 28.8318 112.544 31.0563C112.544 32.3388 112.249 33.4341 111.659 34.342C111.068 35.25 110.2 35.9196 109.054 36.3509C110.348 36.6914 111.341 37.327 112.033 38.2576C112.725 39.1883 113.072 40.3232 113.072 41.6625C113.072 44.0913 112.3 45.9186 110.756 47.1443C109.224 48.3587 106.949 48.9773 103.93 49H93.8682ZM99.8437 38.4619V44.4034H103.759C104.838 44.4034 105.666 44.1594 106.245 43.6714C106.824 43.172 107.113 42.474 107.113 41.5774C107.113 39.5118 106.086 38.4733 104.032 38.4619H99.8437ZM99.8437 34.5463H102.959C104.264 34.535 105.195 34.2966 105.751 33.8313C106.307 33.366 106.585 32.6793 106.585 31.7713C106.585 30.7272 106.285 29.9781 105.683 29.5241C105.082 29.0588 104.111 28.8261 102.772 28.8261H99.8437V34.5463ZM131.747 38.496H122.35V44.4034H133.45V49H116.374V24.2125H133.484V28.8261H122.35V34.0526H131.747V38.496ZM156.603 49H150.661V38.6492H141.86V49H135.884V24.2125H141.86V34.0526H150.661V24.2125H156.603V49ZM179.347 28.8261H171.908V49H165.932V28.8261H158.629V24.2125H179.347V28.8261ZM193.92 44.3694H185.732L184.302 49H177.917L187.008 24.2125H192.626L201.786 49H195.367L193.92 44.3694ZM187.162 39.7558H192.49L189.817 31.1585L187.162 39.7558Z" fill="white"/>
</g>
<path d="M2.85059 68.0469L6.10449 76.168L9.3584 68.0469H11.0605V78H9.74805V74.124L9.87109 69.9404L6.60352 78H5.59863L2.33789 69.9609L2.46777 74.124V78H1.15527V68.0469H2.85059ZM21.0342 73.3447C21.0342 74.32 20.8701 75.1722 20.542 75.9014C20.2139 76.626 19.749 77.1797 19.1475 77.5625C18.5459 77.9453 17.8441 78.1367 17.042 78.1367C16.2581 78.1367 15.5632 77.9453 14.957 77.5625C14.3509 77.1751 13.8792 76.626 13.542 75.915C13.2093 75.1995 13.0384 74.3724 13.0293 73.4336V72.7158C13.0293 71.7588 13.1956 70.9134 13.5283 70.1797C13.861 69.446 14.3304 68.8854 14.9365 68.498C15.5472 68.1061 16.2445 67.9102 17.0283 67.9102C17.8258 67.9102 18.5277 68.1038 19.1338 68.4912C19.7445 68.874 20.2139 69.4323 20.542 70.166C20.8701 70.8952 21.0342 71.7451 21.0342 72.7158V73.3447ZM19.7285 72.7021C19.7285 71.5218 19.4915 70.6172 19.0176 69.9883C18.5436 69.3548 17.8805 69.0381 17.0283 69.0381C16.1989 69.0381 15.5449 69.3548 15.0664 69.9883C14.5924 70.6172 14.3486 71.4922 14.335 72.6133V73.3447C14.335 74.4886 14.5742 75.3887 15.0527 76.0449C15.5358 76.6966 16.1989 77.0225 17.042 77.0225C17.8896 77.0225 18.5459 76.7148 19.0107 76.0996C19.4756 75.4798 19.7148 74.5934 19.7285 73.4404V72.7021ZM29.0732 69.127H24.2744V72.1074H26.749C27.7881 72.1211 28.5993 72.3877 29.1826 72.9072C29.766 73.4268 30.0576 74.1331 30.0576 75.0264C30.0576 75.9242 29.7637 76.6396 29.1758 77.1729C28.5879 77.7061 27.7858 77.9818 26.7695 78H22.9551V68.0469H29.0732V69.127ZM24.2744 73.1875V76.9268H26.6738C27.3255 76.9268 27.8314 76.7536 28.1914 76.4072C28.556 76.0609 28.7383 75.596 28.7383 75.0127C28.7383 74.4521 28.5628 74.0101 28.2119 73.6865C27.8656 73.363 27.3711 73.1966 26.7285 73.1875H24.2744ZM38.1104 68.0469H39.4229V78H38.1104V70.3301L33.209 78H31.8896V68.0469H33.209V75.7168L38.1104 68.0469ZM49.4648 68.0469V78H48.1523V69.127H44.584L44.4062 73.0713C44.3379 74.3929 44.2012 75.3864 43.9961 76.0518C43.7956 76.7171 43.4993 77.207 43.1074 77.5215C42.7155 77.8314 42.1914 77.9909 41.5352 78H41.1045V76.9268L41.3779 76.9131C41.8018 76.8812 42.1276 76.7445 42.3555 76.5029C42.5833 76.2568 42.7565 75.8672 42.875 75.334C42.9935 74.8008 43.0778 73.9805 43.1279 72.873L43.333 68.0469H49.4648ZM53.1221 72.1074H55.5967C56.6357 72.1211 57.4469 72.3877 58.0303 72.9072C58.6136 73.4268 58.9053 74.1331 58.9053 75.0264C58.9053 75.9242 58.6113 76.6396 58.0234 77.1729C57.4355 77.7061 56.6335 77.9818 55.6172 78H51.8096V68.0469H53.1221V72.1074ZM53.1221 73.1875V76.9268H55.5215C56.1732 76.9268 56.679 76.7536 57.0391 76.4072C57.4036 76.0609 57.5859 75.596 57.5859 75.0127C57.5859 74.4521 57.4105 74.0101 57.0596 73.6865C56.7132 73.363 56.2188 73.1966 55.5762 73.1875H53.1221ZM68.291 78H66.9717V73.3994H61.9541V78H60.6416V68.0469H61.9541V72.3262H66.9717V68.0469H68.291V78ZM71.9961 72.1074H74.4707C75.5098 72.1211 76.321 72.3877 76.9043 72.9072C77.4876 73.4268 77.7793 74.1331 77.7793 75.0264C77.7793 75.9242 77.4854 76.6396 76.8975 77.1729C76.3096 77.7061 75.5075 77.9818 74.4912 78H70.6836V68.0469H71.9961V72.1074ZM71.9961 73.1875V76.9268H74.3955C75.0472 76.9268 75.5531 76.7536 75.9131 76.4072C76.2777 76.0609 76.46 75.596 76.46 75.0127C76.46 74.4521 76.2845 74.0101 75.9336 73.6865C75.5872 73.363 75.0928 73.1966 74.4502 73.1875H71.9961ZM80.2949 78H78.9824V68.0469H80.2949V78ZM88.3613 73.3994H84.0479V76.9268H89.0586V78H82.7354V68.0469H88.9902V69.127H84.0479V72.3262H88.3613V73.3994ZM100.338 69.127H95.5391V78H94.2197V68.0469H100.338V69.127ZM106.128 75.4023H101.958L101.021 78H99.668L103.469 68.0469H104.617L108.425 78H107.078L106.128 75.4023ZM102.354 74.3223H105.738L104.043 69.667L102.354 74.3223ZM114.871 70.7197C114.871 70.1911 114.677 69.7718 114.29 69.4619C113.907 69.1475 113.367 68.9902 112.67 68.9902C112.087 68.9902 111.597 69.152 111.2 69.4756C110.808 69.7946 110.612 70.1911 110.612 70.665H109.3C109.3 70.1364 109.443 69.6624 109.73 69.2432C110.022 68.8239 110.428 68.498 110.947 68.2656C111.467 68.0286 112.041 67.9102 112.67 67.9102C113.782 67.9102 114.646 68.1608 115.261 68.6621C115.876 69.1589 116.184 69.8516 116.184 70.7402C116.184 71.2005 116.042 71.6198 115.76 71.998C115.477 72.3763 115.083 72.6748 114.577 72.8936C115.748 73.2855 116.334 74.0625 116.334 75.2246C116.334 76.1178 116.001 76.8265 115.336 77.3506C114.671 77.8747 113.782 78.1367 112.67 78.1367C112.009 78.1367 111.408 78.0205 110.865 77.7881C110.327 77.5511 109.908 77.2161 109.607 76.7832C109.307 76.3503 109.156 75.8353 109.156 75.2383H110.469C110.469 75.7624 110.676 76.1999 111.091 76.5508C111.506 76.8971 112.032 77.0703 112.67 77.0703C113.385 77.0703 113.955 76.904 114.379 76.5713C114.807 76.2386 115.021 75.7988 115.021 75.252C115.021 74.0853 114.299 73.4906 112.854 73.4678H111.624V72.3877H112.848C113.513 72.374 114.017 72.2236 114.358 71.9365C114.7 71.6494 114.871 71.2438 114.871 70.7197ZM125.733 73.3447C125.733 74.32 125.569 75.1722 125.241 75.9014C124.913 76.626 124.448 77.1797 123.847 77.5625C123.245 77.9453 122.543 78.1367 121.741 78.1367C120.957 78.1367 120.262 77.9453 119.656 77.5625C119.05 77.1751 118.578 76.626 118.241 75.915C117.909 75.1995 117.738 74.3724 117.729 73.4336V72.7158C117.729 71.7588 117.895 70.9134 118.228 70.1797C118.56 69.446 119.03 68.8854 119.636 68.498C120.246 68.1061 120.944 67.9102 121.728 67.9102C122.525 67.9102 123.227 68.1038 123.833 68.4912C124.444 68.874 124.913 69.4323 125.241 70.166C125.569 70.8952 125.733 71.7451 125.733 72.7158V73.3447ZM124.428 72.7021C124.428 71.5218 124.191 70.6172 123.717 69.9883C123.243 69.3548 122.58 69.0381 121.728 69.0381C120.898 69.0381 120.244 69.3548 119.766 69.9883C119.292 70.6172 119.048 71.4922 119.034 72.6133V73.3447C119.034 74.4886 119.273 75.3887 119.752 76.0449C120.235 76.6966 120.898 77.0225 121.741 77.0225C122.589 77.0225 123.245 76.7148 123.71 76.0996C124.175 75.4798 124.414 74.5934 124.428 73.4404V72.7021ZM127.702 78V68.0469H130.956C132.036 68.0469 132.847 68.2702 133.39 68.7168C133.937 69.1634 134.21 69.8242 134.21 70.6992C134.21 71.1641 134.078 71.5765 133.813 71.9365C133.549 72.292 133.189 72.5677 132.733 72.7637C133.271 72.9141 133.695 73.2012 134.005 73.625C134.319 74.0443 134.477 74.5456 134.477 75.1289C134.477 76.0221 134.187 76.724 133.608 77.2344C133.03 77.7448 132.212 78 131.154 78H127.702ZM129.015 73.3447V76.9268H131.182C131.792 76.9268 132.273 76.7695 132.624 76.4551C132.979 76.1361 133.157 75.6986 133.157 75.1426C133.157 73.944 132.506 73.3447 131.202 73.3447H129.015ZM129.015 72.292H130.997C131.571 72.292 132.029 72.1484 132.371 71.8613C132.717 71.5742 132.891 71.1846 132.891 70.6924C132.891 70.1455 132.731 69.749 132.412 69.5029C132.093 69.2523 131.608 69.127 130.956 69.127H129.015V72.292ZM137.799 72.1074H140.273C141.312 72.1211 142.124 72.3877 142.707 72.9072C143.29 73.4268 143.582 74.1331 143.582 75.0264C143.582 75.9242 143.288 76.6396 142.7 77.1729C142.112 77.7061 141.31 77.9818 140.294 78H136.486V68.0469H137.799V72.1074ZM137.799 73.1875V76.9268H140.198C140.85 76.9268 141.356 76.7536 141.716 76.4072C142.08 76.0609 142.263 75.596 142.263 75.0127C142.263 74.4521 142.087 74.0101 141.736 73.6865C141.39 73.363 140.896 73.1966 140.253 73.1875H137.799ZM146.098 78H144.785V68.0469H146.098V78ZM154.164 73.3994H149.851V76.9268H154.861V78H148.538V68.0469H154.793V69.127H149.851V72.3262H154.164V73.3994ZM165.074 70.7197C165.074 70.1911 164.881 69.7718 164.493 69.4619C164.11 69.1475 163.57 68.9902 162.873 68.9902C162.29 68.9902 161.8 69.152 161.403 69.4756C161.011 69.7946 160.815 70.1911 160.815 70.665H159.503C159.503 70.1364 159.646 69.6624 159.934 69.2432C160.225 68.8239 160.631 68.498 161.15 68.2656C161.67 68.0286 162.244 67.9102 162.873 67.9102C163.985 67.9102 164.849 68.1608 165.464 68.6621C166.079 69.1589 166.387 69.8516 166.387 70.7402C166.387 71.2005 166.245 71.6198 165.963 71.998C165.68 72.3763 165.286 72.6748 164.78 72.8936C165.951 73.2855 166.537 74.0625 166.537 75.2246C166.537 76.1178 166.204 76.8265 165.539 77.3506C164.874 77.8747 163.985 78.1367 162.873 78.1367C162.212 78.1367 161.611 78.0205 161.068 77.7881C160.531 77.5511 160.111 77.2161 159.811 76.7832C159.51 76.3503 159.359 75.8353 159.359 75.2383H160.672C160.672 75.7624 160.879 76.1999 161.294 76.5508C161.709 76.8971 162.235 77.0703 162.873 77.0703C163.589 77.0703 164.158 76.904 164.582 76.5713C165.01 76.2386 165.225 75.7988 165.225 75.252C165.225 74.0853 164.502 73.4906 163.058 73.4678H161.827V72.3877H163.051C163.716 72.374 164.22 72.2236 164.562 71.9365C164.903 71.6494 165.074 71.2438 165.074 70.7197ZM173.776 75.4023H169.606L168.67 78H167.316L171.117 68.0469H172.266L176.073 78H174.727L173.776 75.4023ZM170.003 74.3223H173.387L171.691 69.667L170.003 74.3223ZM185.015 78H183.695V69.127H178.787V78H177.475V68.0469H185.015V78ZM188.72 74.1035V78H187.407V68.0469H191.078C192.167 68.0469 193.02 68.3249 193.635 68.8809C194.255 69.4368 194.564 70.1729 194.564 71.0889C194.564 72.055 194.261 72.8001 193.655 73.3242C193.054 73.8438 192.19 74.1035 191.064 74.1035H188.72ZM188.72 73.0303H191.078C191.78 73.0303 192.318 72.8662 192.691 72.5381C193.065 72.2054 193.252 71.7269 193.252 71.1025C193.252 70.5101 193.065 70.0361 192.691 69.6807C192.318 69.3252 191.805 69.1406 191.153 69.127H188.72V73.0303ZM200.792 75.4023H196.622L195.686 78H194.332L198.133 68.0469H199.281L203.089 78H201.742L200.792 75.4023ZM197.019 74.3223H200.402L198.707 69.667L197.019 74.3223ZM204.429 78V68.0469H207.683C208.763 68.0469 209.574 68.2702 210.116 68.7168C210.663 69.1634 210.937 69.8242 210.937 70.6992C210.937 71.1641 210.804 71.5765 210.54 71.9365C210.276 72.292 209.916 72.5677 209.46 72.7637C209.998 72.9141 210.422 73.2012 210.731 73.625C211.046 74.0443 211.203 74.5456 211.203 75.1289C211.203 76.0221 210.914 76.724 210.335 77.2344C209.756 77.7448 208.938 78 207.881 78H204.429ZM205.741 73.3447V76.9268H207.908C208.519 76.9268 209 76.7695 209.351 76.4551C209.706 76.1361 209.884 75.6986 209.884 75.1426C209.884 73.944 209.232 73.3447 207.929 73.3447H205.741ZM205.741 72.292H207.724C208.298 72.292 208.756 72.1484 209.098 71.8613C209.444 71.5742 209.617 71.1846 209.617 70.6924C209.617 70.1455 209.458 69.749 209.139 69.5029C208.82 69.2523 208.334 69.127 207.683 69.127H205.741V72.292ZM215.735 73.5293H214.525V78H213.213V68.0469H214.525V72.4355H215.551L219.03 68.0469H220.664L216.863 72.873L220.944 78H219.338L215.735 73.5293ZM228.423 68.0469H229.735V78H228.423V70.3301L223.521 78H222.202V68.0469H223.521V75.7168L228.423 68.0469Z" fill="black"/>
<path d="M70 58L202 57.994" stroke="#EF7A24" stroke-width="3"/>
<path d="M15.1106 46.8927C14.5389 51.2444 15.8918 58.0909 15.8918 58.0909C15.8918 58.0909 -1.23519 42.9772 0.0710975 31.1451C1.23533 20.5998 17.116 19.5161 17.4544 8.9236C17.567 5.39755 15.8918 0 15.8918 0C15.8918 0 32.0672 12.8292 31.9079 23.6213C31.7482 34.4428 16.5225 36.1444 15.1106 46.8927Z" fill="url(#paint0_linear)"/>
<path d="M46.5115 58.0909H22.0909C22.0909 58.0909 23.0107 53.5509 24.0291 50.7511C27.4247 41.4161 39.5161 39.7774 39.728 29.955C39.7951 26.8475 38.3713 22.0909 38.3713 22.0909C38.3713 22.0909 56.6062 36.361 53.6826 47.256C52.3975 52.0453 46.5115 58.0909 46.5115 58.0909Z" fill="url(#paint1_linear)"/>
<defs>
<filter id="filter0_d" x="70.6129" y="24.2125" width="139.248" height="32.8626" filterUnits="userSpaceOnUse" color-interpolation-filters="sRGB">
<feFlood flood-opacity="0" result="BackgroundImageFix"/>
<feColorMatrix in="SourceAlpha" type="matrix" values="0 0 0 0 0 0 0 0 0 0 0 0 0 0 0 0 0 0 127 0"/>
<feOffset dx="4.03756" dy="4.03756"/>
<feGaussianBlur stdDeviation="2.01878"/>
<feColorMatrix type="matrix" values="0 0 0 0 0 0 0 0 0 0 0 0 0 0 0 0 0 0 1 0"/>
<feBlend mode="normal" in2="BackgroundImageFix" result="effect1_dropShadow"/>
<feBlend mode="normal" in="SourceGraphic" in2="effect1_dropShadow" result="shape"/>
</filter>
<linearGradient id="paint0_linear" x1="15.9545" y1="0" x2="15.9545" y2="58.0909" gradientUnits="userSpaceOnUse">
<stop stop-color="#FAB031"/>
<stop offset="0.801494" stop-color="#D83519"/>
<stop offset="1" stop-color="#D01613"/>
</linearGradient>
<linearGradient id="paint1_linear" x1="38.0455" y1="22.0909" x2="38.0455" y2="58.0909" gradientUnits="userSpaceOnUse">
<stop stop-color="#F7B02D"/>
<stop offset="1" stop-color="#E43B18"/>
</linearGradient>
</defs>
</svg>
